<?xml version="1.0" standalone="no"?>
<!DOCTYPE svg PUBLIC "-//W3C//DTD SVG 20010904//EN"
 "http://www.w3.org/TR/2001/REC-SVG-20010904/DTD/svg10.dtd">
<svg version="1.0" xmlns="http://www.w3.org/2000/svg"
 width="60.000000pt" height="60.000000pt" viewBox="0 0 60.000000 60.000000"
 preserveAspectRatio="xMidYMid meet">

<g transform="translate(0.000000,60.000000) scale(0.100000,-0.100000)"
fill="#000000" stroke="none">
<path d="M0 300 l0 -300 300 0 300 0 0 300 0 300 -300 0 -300 0 0 -300z m161
190 c21 -12 26 -54 8 -66 -8 -5 -6 -10 5 -16 23 -13 20 -54 -6 -72 -14 -10
-44 -16 -80 -16 l-58 0 0 90 0 90 56 0 c30 0 64 -5 75 -10z m99 -54 c0 -50 4
-65 16 -70 30 -11 44 13 44 75 0 56 1 59 25 59 24 0 25 -2 25 -72 0 -54 -4
-76 -17 -91 -11 -12 -12 -17 -4 -12 12 7 13 0 7 -35 -9 -54 -12 -60 -39 -60
-20 -1 -20 -2 6 -16 15 -8 27 -19 27 -24 0 -4 3 -15 6 -24 3 -9 -5 -26 -20
-41 -44 -44 -146 -26 -146 26 0 24 45 27 54 3 3 -9 15 -14 28 -12 36 5 32 26
-8 37 -72 20 -94 64 -49 99 26 21 33 46 14 57 -20 13 -30 60 -24 113 6 47 9
52 31 52 23 0 24 -3 24 -64z m199 37 c18 -24 23 -26 31 -13 5 8 13 21 18 28 5
8 21 12 36 10 l26 -3 -27 -40 c-16 -23 -30 -60 -33 -85 -4 -40 -8 -45 -32 -48
-27 -3 -28 -1 -28 38 0 30 -9 54 -30 85 -36 53 -36 55 -6 55 15 0 33 -11 45
-27z m-369 -253 l0 -70 45 0 c41 0 45 -2 45 -25 0 -24 -2 -25 -75 -25 l-75 0
0 95 0 95 30 0 30 0 0 -70z m340 40 c0 -16 3 -30 6 -30 3 0 17 14 31 30 18 23
33 30 59 30 41 0 42 -9 9 -40 -14 -13 -25 -28 -25 -33 0 -5 14 -32 30 -59 17
-26 30 -50 30 -53 0 -3 -15 -5 -33 -5 -30 0 -36 5 -52 40 -17 38 -19 39 -37
24 -10 -10 -18 -28 -18 -41 0 -18 -6 -23 -24 -23 -20 0 -24 6 -30 46 -3 26 -6
69 -6 95 0 48 1 49 30 49 27 0 30 -3 30 -30z"/>
<path d="M80 445 c0 -9 9 -15 25 -15 16 0 25 6 25 15 0 9 -9 15 -25 15 -16 0
-25 -6 -25 -15z"/>
<path d="M87 394 c-17 -18 -6 -35 21 -32 16 2 27 9 27 18 0 16 -36 26 -48 14z"/>
<path d="M256 253 c-3 -3 -3 -10 0 -14 7 -12 34 -11 34 0 0 11 -26 22 -34 14z"/>
</g>
</svg>
